<svg width="200" height="64" viewBox="0 0 200 64" fill="none" xmlns="http://www.w3.org/2000/svg">
<path d="M200 56.2393C200 60.0099 196.943 63.0665 193.173 63.0665C189.402 63.0665 186.346 60.0099 186.346 56.2393C186.346 52.4688 189.402 49.4121 193.173 49.4121C196.943 49.4121 200 52.4688 200 56.2393Z" fill="#F34696"/>
<path d="M0 63.0664V18.6042H11.6916V22.0178C14.8776 19.1731 18.7464 17.7508 23.2979 17.7508C26.1994 17.7508 28.7881 18.3481 31.0638 19.5429C33.3396 20.6808 35.217 22.3022 36.6963 24.4073C38.5169 22.2453 40.6504 20.5954 43.0968 19.4576C45.6001 18.3197 48.3594 17.7508 51.3748 17.7508C54.7315 17.7508 57.6615 18.5188 60.1648 20.0549C62.725 21.5342 64.7163 23.6108 66.1386 26.2848C67.6179 28.9019 68.3575 31.9741 68.3575 35.5015V63.0664H56.7512V37.2083C56.7512 34.3068 55.9832 32.031 54.447 30.3811C52.9109 28.6743 50.8627 27.8209 48.3025 27.8209C46.5388 27.8209 44.9174 28.1907 43.4382 28.9303C42.0158 29.6699 40.7926 30.7794 39.7685 32.2586C39.8254 32.7706 39.8823 33.2827 39.9392 33.7947C39.9961 34.3068 40.0245 34.8757 40.0245 35.5015V63.0664H28.3329V37.2083C28.3329 34.3068 27.5649 32.031 26.0288 30.3811C24.5495 28.6743 22.5298 27.8209 19.9696 27.8209C18.2059 27.8209 16.6129 28.1623 15.1906 28.845C13.8251 29.5277 12.6588 30.5518 11.6916 31.9172V63.0664H0Z" fill="#FAFAFD"/>
<path d="M72.9892 63.0664V18.6042H84.6808V63.0664H72.9892ZM78.7923 13.3131C76.9717 13.3131 75.4072 12.6588 74.0986 11.3502C72.7901 10.0417 72.1358 8.47713 72.1358 6.65653C72.1358 4.77905 72.7901 3.21448 74.0986 1.96282C75.4072 0.654275 76.9717 0 78.7923 0C80.6698 0 82.2344 0.654275 83.486 1.96282C84.7946 3.21448 85.4489 4.77905 85.4489 6.65653C85.4489 8.47713 84.7946 10.0417 83.486 11.3502C82.2344 12.6588 80.6698 13.3131 78.7923 13.3131Z" fill="#FAFAFD"/>
<path d="M89.5572 63.0664V18.6042H101.249V63.0664H89.5572ZM95.3603 13.3131C93.5397 13.3131 91.9752 12.6588 90.6666 11.3502C89.3581 10.0417 88.7038 8.47713 88.7038 6.65653C88.7038 4.77905 89.3581 3.21448 90.6666 1.96282C91.9752 0.654275 93.5397 0 95.3603 0C97.2378 0 98.8024 0.654275 100.054 1.96282C101.363 3.21448 102.017 4.77905 102.017 6.65653C102.017 8.47713 101.363 10.0417 100.054 11.3502C98.8024 12.6588 97.2378 13.3131 95.3603 13.3131Z" fill="#FAFAFD"/>
<path d="M127.204 63.7491C122.254 63.7491 118.5 62.6397 115.939 60.4208C113.436 58.1451 112.184 54.8453 112.184 50.5214V28.3329H103.053V18.6042H112.184V7.25391L123.876 4.60837V18.6042H136.592V28.3329H123.876V48.1319C123.876 50.18 124.331 51.6593 125.241 52.5696C126.152 53.423 127.745 53.8497 130.02 53.8497C131.158 53.8497 132.182 53.7928 133.093 53.679C134.06 53.5083 135.112 53.2238 136.25 52.8256V62.469C135.055 62.8673 133.548 63.1802 131.727 63.4078C129.964 63.6353 128.456 63.7491 127.204 63.7491Z" fill="#FAFAFD"/>
<path d="M159.94 63.7491C154.99 63.7491 151.235 62.6397 148.675 60.4208C146.172 58.1451 144.92 54.8453 144.92 50.5214V28.3329H135.789V18.6042H144.92V7.25391L156.612 4.60837V18.6042H169.328V28.3329H156.612V48.1319C156.612 50.18 157.067 51.6593 157.977 52.5696C158.888 53.423 160.481 53.8497 162.756 53.8497C163.894 53.8497 164.918 53.7928 165.829 53.679C166.796 53.5083 167.848 53.2238 168.986 52.8256V62.469C167.791 62.8673 166.284 63.1802 164.463 63.4078C162.699 63.6353 161.192 63.7491 159.94 63.7491Z" fill="#FAFAFD"/>
<path d="M170.764 63.0664V18.6042H182.455V63.0664H170.764ZM176.567 13.3131C174.746 13.3131 173.182 12.6588 171.873 11.3502C170.565 10.0417 169.91 8.47713 169.91 6.65653C169.91 4.77905 170.565 3.21448 171.873 1.96282C173.182 0.654275 174.746 0 176.567 0C178.444 0 180.009 0.654275 181.261 1.96282C182.569 3.21448 183.223 4.77905 183.223 6.65653C183.223 8.47713 182.569 10.0417 181.261 11.3502C180.009 12.6588 178.444 13.3131 176.567 13.3131Z" fill="#FAFAFD"/>
</svg>
